<mxfile host="app.diagrams.net" modified="2024-04-07T06:30:29.341Z" agent="Mozilla/5.0 (Windows NT 10.0; Win64; x64) AppleWebKit/537.36 (KHTML, like Gecko) Chrome/122.0.0.0 Safari/537.36 OPR/108.0.0.0" etag="oPBT4nvY_4dtNVG06Gp9" version="24.2.2" type="github">
  <diagram name="Page-1" id="5FTfqjHZrjDk0TKtllAm">
    <mxGraphModel dx="1245" dy="699" grid="1" gridSize="10" guides="1" tooltips="1" connect="1" arrows="1" fold="1" page="1" pageScale="1" pageWidth="850" pageHeight="1100" math="0" shadow="0">
      <root>
        <mxCell id="0" />
        <mxCell id="1" parent="0" />
        <mxCell id="NeZD5TrI6abkmENyFCbo-28" value="" style="rounded=0;whiteSpace=wrap;html=1;fillColor=#ffe6cc;strokeColor=#d79b00;" vertex="1" parent="1">
          <mxGeometry x="200" y="280" width="460" height="590" as="geometry" />
        </mxCell>
        <mxCell id="NeZD5TrI6abkmENyFCbo-15" style="rounded=0;orthogonalLoop=1;jettySize=auto;html=1;exitX=1;exitY=0.3333333333333333;exitDx=0;exitDy=0;exitPerimeter=0;endArrow=none;endFill=0;" edge="1" parent="1" source="NeZD5TrI6abkmENyFCbo-2" target="NeZD5TrI6abkmENyFCbo-7">
          <mxGeometry relative="1" as="geometry" />
        </mxCell>
        <mxCell id="NeZD5TrI6abkmENyFCbo-16" style="edgeStyle=none;rounded=0;orthogonalLoop=1;jettySize=auto;html=1;exitX=1;exitY=0.3333333333333333;exitDx=0;exitDy=0;exitPerimeter=0;endArrow=none;endFill=0;" edge="1" parent="1" source="NeZD5TrI6abkmENyFCbo-2" target="NeZD5TrI6abkmENyFCbo-8">
          <mxGeometry relative="1" as="geometry" />
        </mxCell>
        <mxCell id="NeZD5TrI6abkmENyFCbo-17" style="edgeStyle=none;rounded=0;orthogonalLoop=1;jettySize=auto;html=1;exitX=1;exitY=0.3333333333333333;exitDx=0;exitDy=0;exitPerimeter=0;endArrow=none;endFill=0;" edge="1" parent="1" source="NeZD5TrI6abkmENyFCbo-2" target="NeZD5TrI6abkmENyFCbo-9">
          <mxGeometry relative="1" as="geometry" />
        </mxCell>
        <mxCell id="NeZD5TrI6abkmENyFCbo-18" style="edgeStyle=none;rounded=0;orthogonalLoop=1;jettySize=auto;html=1;exitX=1;exitY=0.3333333333333333;exitDx=0;exitDy=0;exitPerimeter=0;endArrow=none;endFill=0;" edge="1" parent="1" source="NeZD5TrI6abkmENyFCbo-2" target="NeZD5TrI6abkmENyFCbo-10">
          <mxGeometry relative="1" as="geometry" />
        </mxCell>
        <mxCell id="NeZD5TrI6abkmENyFCbo-24" style="edgeStyle=none;rounded=0;orthogonalLoop=1;jettySize=auto;html=1;exitX=1;exitY=0.3333333333333333;exitDx=0;exitDy=0;exitPerimeter=0;dashed=1;endArrow=none;endFill=0;" edge="1" parent="1" source="NeZD5TrI6abkmENyFCbo-2" target="NeZD5TrI6abkmENyFCbo-14">
          <mxGeometry relative="1" as="geometry" />
        </mxCell>
        <mxCell id="NeZD5TrI6abkmENyFCbo-25" value="&amp;lt;includes&amp;gt;" style="edgeLabel;html=1;align=center;verticalAlign=middle;resizable=0;points=[];" vertex="1" connectable="0" parent="NeZD5TrI6abkmENyFCbo-24">
          <mxGeometry x="0.7566" y="-2" relative="1" as="geometry">
            <mxPoint x="-1" as="offset" />
          </mxGeometry>
        </mxCell>
        <mxCell id="NeZD5TrI6abkmENyFCbo-2" value="User" style="shape=umlActor;verticalLabelPosition=bottom;verticalAlign=top;html=1;outlineConnect=0;" vertex="1" parent="1">
          <mxGeometry x="130" y="620" width="30" height="60" as="geometry" />
        </mxCell>
        <mxCell id="NeZD5TrI6abkmENyFCbo-20" style="edgeStyle=none;rounded=0;orthogonalLoop=1;jettySize=auto;html=1;exitX=0;exitY=0.3333333333333333;exitDx=0;exitDy=0;exitPerimeter=0;endArrow=none;endFill=0;" edge="1" parent="1" source="NeZD5TrI6abkmENyFCbo-3" target="NeZD5TrI6abkmENyFCbo-12">
          <mxGeometry relative="1" as="geometry" />
        </mxCell>
        <mxCell id="NeZD5TrI6abkmENyFCbo-21" style="edgeStyle=none;rounded=0;orthogonalLoop=1;jettySize=auto;html=1;exitX=0;exitY=0.3333333333333333;exitDx=0;exitDy=0;exitPerimeter=0;entryX=1;entryY=0;entryDx=0;entryDy=0;endArrow=none;endFill=0;" edge="1" parent="1" source="NeZD5TrI6abkmENyFCbo-3" target="NeZD5TrI6abkmENyFCbo-11">
          <mxGeometry relative="1" as="geometry" />
        </mxCell>
        <mxCell id="NeZD5TrI6abkmENyFCbo-3" value="System" style="shape=umlActor;verticalLabelPosition=bottom;verticalAlign=top;html=1;outlineConnect=0;" vertex="1" parent="1">
          <mxGeometry x="770" y="640" width="30" height="60" as="geometry" />
        </mxCell>
        <mxCell id="NeZD5TrI6abkmENyFCbo-7" value="Enter and create new family members" style="ellipse;whiteSpace=wrap;html=1;" vertex="1" parent="1">
          <mxGeometry x="250" y="400" width="120" height="80" as="geometry" />
        </mxCell>
        <mxCell id="NeZD5TrI6abkmENyFCbo-8" value="Access the family members accounts" style="ellipse;whiteSpace=wrap;html=1;" vertex="1" parent="1">
          <mxGeometry x="250" y="560" width="120" height="80" as="geometry" />
        </mxCell>
        <mxCell id="NeZD5TrI6abkmENyFCbo-9" value="Update the family accounts" style="ellipse;whiteSpace=wrap;html=1;" vertex="1" parent="1">
          <mxGeometry x="230" y="670" width="120" height="80" as="geometry" />
        </mxCell>
        <mxCell id="NeZD5TrI6abkmENyFCbo-22" style="edgeStyle=none;rounded=0;orthogonalLoop=1;jettySize=auto;html=1;dashed=1;endArrow=none;endFill=0;" edge="1" parent="1" source="NeZD5TrI6abkmENyFCbo-10" target="NeZD5TrI6abkmENyFCbo-11">
          <mxGeometry relative="1" as="geometry" />
        </mxCell>
        <mxCell id="NeZD5TrI6abkmENyFCbo-23" value="&amp;lt;extend&amp;gt;" style="edgeLabel;html=1;align=center;verticalAlign=middle;resizable=0;points=[];" vertex="1" connectable="0" parent="NeZD5TrI6abkmENyFCbo-22">
          <mxGeometry x="0.0292" y="-2" relative="1" as="geometry">
            <mxPoint as="offset" />
          </mxGeometry>
        </mxCell>
        <mxCell id="NeZD5TrI6abkmENyFCbo-10" value="Delete family accounts" style="ellipse;whiteSpace=wrap;html=1;" vertex="1" parent="1">
          <mxGeometry x="230" y="770" width="120" height="80" as="geometry" />
        </mxCell>
        <mxCell id="NeZD5TrI6abkmENyFCbo-11" value="Delete accounts" style="ellipse;whiteSpace=wrap;html=1;" vertex="1" parent="1">
          <mxGeometry x="500" y="760" width="120" height="80" as="geometry" />
        </mxCell>
        <mxCell id="NeZD5TrI6abkmENyFCbo-12" value="Do updates of family members" style="ellipse;whiteSpace=wrap;html=1;" vertex="1" parent="1">
          <mxGeometry x="530" y="610" width="120" height="80" as="geometry" />
        </mxCell>
        <mxCell id="NeZD5TrI6abkmENyFCbo-13" value="Create the family member in database" style="ellipse;whiteSpace=wrap;html=1;" vertex="1" parent="1">
          <mxGeometry x="390" y="470" width="120" height="80" as="geometry" />
        </mxCell>
        <mxCell id="NeZD5TrI6abkmENyFCbo-14" value="Validate the main user" style="ellipse;whiteSpace=wrap;html=1;" vertex="1" parent="1">
          <mxGeometry x="450" y="330" width="120" height="80" as="geometry" />
        </mxCell>
        <mxCell id="NeZD5TrI6abkmENyFCbo-19" style="edgeStyle=none;rounded=0;orthogonalLoop=1;jettySize=auto;html=1;exitX=0;exitY=0.3333333333333333;exitDx=0;exitDy=0;exitPerimeter=0;entryX=1;entryY=0.75;entryDx=0;entryDy=0;entryPerimeter=0;endArrow=none;endFill=0;" edge="1" parent="1" source="NeZD5TrI6abkmENyFCbo-3" target="NeZD5TrI6abkmENyFCbo-13">
          <mxGeometry relative="1" as="geometry" />
        </mxCell>
        <mxCell id="NeZD5TrI6abkmENyFCbo-26" style="edgeStyle=none;rounded=0;orthogonalLoop=1;jettySize=auto;html=1;exitX=0;exitY=0.3333333333333333;exitDx=0;exitDy=0;exitPerimeter=0;entryX=0.956;entryY=0.856;entryDx=0;entryDy=0;entryPerimeter=0;endArrow=none;endFill=0;" edge="1" parent="1" source="NeZD5TrI6abkmENyFCbo-3" target="NeZD5TrI6abkmENyFCbo-14">
          <mxGeometry relative="1" as="geometry" />
        </mxCell>
        <mxCell id="NeZD5TrI6abkmENyFCbo-29" value="Text" style="text;html=1;align=center;verticalAlign=middle;whiteSpace=wrap;rounded=0;" vertex="1" parent="1">
          <mxGeometry x="670" y="580" width="60" height="30" as="geometry" />
        </mxCell>
        <mxCell id="NeZD5TrI6abkmENyFCbo-30" value="Text" style="text;html=1;align=center;verticalAlign=middle;whiteSpace=wrap;rounded=0;" vertex="1" parent="1">
          <mxGeometry x="670" y="580" width="60" height="30" as="geometry" />
        </mxCell>
        <mxCell id="NeZD5TrI6abkmENyFCbo-31" value="Family Account Management" style="text;html=1;align=center;verticalAlign=middle;whiteSpace=wrap;rounded=0;" vertex="1" parent="1">
          <mxGeometry x="340" y="280" width="170" height="30" as="geometry" />
        </mxCell>
      </root>
    </mxGraphModel>
  </diagram>
</mxfile>
